<svg xmlns="http://www.w3.org/2000/svg" xmlns:xlink="http://www.w3.org/1999/xlink" fill="none" version="1.1" width="25" height="18" viewBox="0 0 25 18"><g><path d="M24.4792,7.72703L17.4968,0.567615C16.8087,-0.17557,15.6584,-0.191022,14.9514,0.533422C14.2445,1.25787,14.2589,2.43734,14.9833,3.14342L18.9484,7.20964L1.76114,7.20964C0.78807,7.20908,-0.000818225,8.0182,4.82159e-7,9.01595C4.82159e-7,10.0131,0.788649,10.8213,1.76114,10.8207L18.9484,10.8207L14.9833,14.8885C14.289,15.6002,14.2889,16.7542,14.983,17.466C15.6771,18.1779,16.8026,18.178,17.4968,17.4663L24.4792,10.3049C25.1736,9.59308,25.1736,8.4388,24.4792,7.72703Z" fill="#FFFFFF" fill-opacity="1"/></g></svg>