<svg xmlns="http://www.w3.org/2000/svg" xmlns:xlink="http://www.w3.org/1999/xlink" fill="none" version="1.1" width="80" height="80" viewBox="0 0 80 80"><defs><clipPath id="master_svg0_22_25473"><g style="mix-blend-mode:passthrough"><path d="M13,28L16.26154,28L16.26154,36.27586L13,36.27586L13,28Z" fill-rule="evenodd" fill="#FFFFFF" fill-opacity="1"/></g></clipPath></defs><g style="mix-blend-mode:passthrough"><g style="mix-blend-mode:passthrough"><rect x="0" y="0" width="80" height="80" rx="14" fill="#FFFFFF" fill-opacity="1"/></g><g style="mix-blend-mode:passthrough"><g style="mix-blend-mode:passthrough"><g style="mix-blend-mode:passthrough"></g><g style="mix-blend-mode:passthrough" clipPath="url(#master_svg0_22_25473)"><g style="mix-blend-mode:passthrough"><path d="M14.63091,36.27603L14.63091,36.27603C13.733741,36.27603,13,35.54517,13,34.65214L13,29.62389C13,28.730861,13.733741,28,14.63091,28C15.5278,28,16.26154,28.730861,16.26154,29.62389L16.26154,34.65214Q16.26154,35.54517,14.63091,36.27603Z" fill-rule="evenodd" fill="#005EFF" fill-opacity="1"/></g></g></g><g style="mix-blend-mode:passthrough"><path d="M27.63091,52.27586L27.63091,52.27586C26.734021,52.27586,26,51.54502,26,50.65201L26,45.62358C26,44.730567,26.734021,44,27.63091,44C28.5278,44,29.26154,44.730567,29.26154,45.62358L29.26154,50.65201Q29.26154,51.54502,27.63091,52.27586Z" fill-rule="evenodd" fill="#005EFF" fill-opacity="1"/></g><g style="mix-blend-mode:passthrough"><path d="M27.63091,42.27586L27.63091,42.27586C26.734021,42.27586,26,41.54502,26,40.65201L26,35.62385C26,34.730846,26.734021,34,27.63091,34C28.5278,34,29.26154,34.730846,29.26154,35.62385L29.26154,40.65201Q29.26154,41.54502,27.63091,42.27586Z" fill-rule="evenodd" fill="#005EFF" fill-opacity="1"/></g><g style="mix-blend-mode:passthrough"><path d="M33.63063,45.27586L33.63063,45.27586C32.733741,45.27586,32,44.54527,32,43.65223L32,38.62363C32,37.730592,32.733741,37,33.63063,37C34.52752,37,35.26154,37.730592,35.26154,38.62363L35.26154,43.65223Q35.26154,44.54527,33.63063,45.27586Z" fill-rule="evenodd" fill="#005EFF" fill-opacity="1"/></g><g style="mix-blend-mode:passthrough"><path d="M21.63091,51.931039999999996L21.63091,51.931039999999996C20.733741,51.931039999999996,20,51.27118,20,50.46491L20,43.466120000000004C20,42.659855,20.733741,42,21.63091,42C22.5278,42,23.26154,42.659855,23.26154,43.466120000000004L23.26154,50.46491Q23.26154,51.27118,21.63091,51.931039999999996Z" fill-rule="evenodd" fill="#005EFF" fill-opacity="1"/></g><g style="mix-blend-mode:passthrough"><path d="M14.63091,52.069L14.63091,52.069C13.733741,52.069,13,51.3419,13,50.4535L13,39.61518C13,38.726788,13.733741,38,14.63091,38C15.5278,38,16.26154,38.726788,16.26154,39.61518L16.26154,50.4535Q16.26154,51.3419,14.63091,52.069Z" fill-rule="evenodd" fill="#005EFF" fill-opacity="1"/></g><g style="mix-blend-mode:passthrough"><path d="M39.63077,52.069L39.63077,52.069C38.733958,52.069,38,51.3419,38,50.4535L38,39.61518C38,38.726788,38.733958,38,39.63077,38C40.52786,38,41.26154,38.726788,41.26154,39.61518L41.26154,50.4535Q41.26154,51.3419,39.63077,52.069Z" fill-rule="evenodd" fill="#005EFF" fill-opacity="1"/></g><g style="mix-blend-mode:passthrough"><path d="M21.63091,39.96552L21.63091,39.96552C20.733741,39.96552,20,39.195949999999996,20,38.25526L20,36.71025C20,35.76957,20.733741,35,21.63091,35C22.5278,35,23.26154,35.76957,23.26154,36.71025L23.26154,38.25526Q23.26154,39.195949999999996,21.63091,39.96552Z" fill-rule="evenodd" fill="#005EFF" fill-opacity="1"/></g><g style="mix-blend-mode:passthrough"><path d="M39.63077,35.96552L39.63077,35.96552C38.733958,35.96552,38,35.1957,38,34.25507L38,32.71045C38,31.769818,38.733958,31,39.63077,31C40.52786,31,41.26154,31.769818,41.26154,32.71045L41.26154,34.25507Q41.26154,35.1957,39.63077,35.96552Z" fill-rule="evenodd" fill="#005EFF" fill-opacity="1"/></g><g style="mix-blend-mode:passthrough"><path d="M33.63063,51.96552L33.63063,51.96552C32.733741,51.96552,32,51.1957,32,50.25507L32,48.71045C32,47.769818,32.733741,47,33.63063,47C34.52752,47,35.26154,47.769818,35.26154,48.71045L35.26154,50.25507Q35.26154,51.1957,33.63063,51.96552Z" fill-rule="evenodd" fill="#005EFF" fill-opacity="1"/></g><g style="mix-blend-mode:passthrough"><path d="M46.63077,51.931039999999996L46.63077,51.931039999999996C45.733804,51.931039999999996,45,51.27118,45,50.46491L45,43.466120000000004C45,42.659855,45.733804,42,46.63077,42C47.52773,42,48.26154,42.659855,48.26154,43.466120000000004L48.26154,50.46491Q48.26154,51.27118,46.63077,51.931039999999996Z" fill-rule="evenodd" fill="#005EFF" fill-opacity="1"/></g><g style="mix-blend-mode:passthrough"><path d="M64.63091,52.069L64.63091,52.069C63.734021,52.069,63,51.3419,63,50.4535L63,39.61518C63,38.726788,63.734021,38,64.63091,38C65.5278,38,66.26154,38.726788,66.26154,39.61518L66.26154,50.4535Q66.26154,51.3419,64.63091,52.069Z" fill-rule="evenodd" fill="#005EFF" fill-opacity="1"/></g><g style="mix-blend-mode:passthrough"><path d="M52.63077,52.069L52.63077,52.069C51.733804,52.069,51,51.3419,51,50.4535L51,39.61518C51,38.726788,51.733804,38,52.63077,38C53.52773,38,54.26154,38.726788,54.26154,39.61518L54.26154,50.4535Q54.26154,51.3419,52.63077,52.069Z" fill-rule="evenodd" fill="#005EFF" fill-opacity="1"/></g><g style="mix-blend-mode:passthrough"><path d="M46.63077,39.96552L46.63077,39.96552C45.733804,39.96552,45,39.195949999999996,45,38.25526L45,36.71025C45,35.76957,45.733804,35,46.63077,35C47.52773,35,48.26154,35.76957,48.26154,36.71025L48.26154,38.25526Q48.26154,39.195949999999996,46.63077,39.96552Z" fill-rule="evenodd" fill="#005EFF" fill-opacity="1"/></g><g style="mix-blend-mode:passthrough"><path d="M64.63091,35.96552L64.63091,35.96552C63.734021,35.96552,63,35.1957,63,34.25507L63,32.71045C63,31.769818,63.734021,31,64.63091,31C65.5278,31,66.26154,31.769818,66.26154,32.71045L66.26154,34.25507Q66.26154,35.1957,64.63091,35.96552Z" fill-rule="evenodd" fill="#005EFF" fill-opacity="1"/></g><g style="mix-blend-mode:passthrough"><path d="M58.63091,44.96552L58.63091,44.96552C57.734021,44.96552,57,44.195949999999996,57,43.25526L57,41.71025C57,40.76957,57.734021,40,58.63091,40C59.5278,40,60.26154,40.76957,60.26154,41.71025L60.26154,43.25526Q60.26154,44.195949999999996,58.63091,44.96552Z" fill-rule="evenodd" fill="#005EFF" fill-opacity="1"/></g><g style="mix-blend-mode:passthrough"><path d="M58.63091,38.96552L58.63091,38.96552C57.734021,38.96552,57,38.195949999999996,57,37.25526L57,35.71025C57,34.76957,57.734021,34,58.63091,34C59.5278,34,60.26154,34.76957,60.26154,35.71025L60.26154,37.25526Q60.26154,38.195949999999996,58.63091,38.96552Z" fill-rule="evenodd" fill="#005EFF" fill-opacity="1"/></g><g style="mix-blend-mode:passthrough"><path d="M58.63091,51.96552L58.63091,51.96552C57.734021,51.96552,57,51.1957,57,50.25507L57,48.71045C57,47.769818,57.734021,47,58.63091,47C59.5278,47,60.26154,47.769818,60.26154,48.71045L60.26154,50.25507Q60.26154,51.1957,58.63091,51.96552Z" fill-rule="evenodd" fill="#005EFF" fill-opacity="1"/></g></g></g></svg>