<svg xmlns="http://www.w3.org/2000/svg" xmlns:xlink="http://www.w3.org/1999/xlink" fill="none" version="1.1" width="80" height="80" viewBox="0 0 80 80"><defs><clipPath id="master_svg0_22_25461"><g style="mix-blend-mode:passthrough"><rect x="0" y="0" width="80" height="80" rx="14" fill="#FFFFFF" fill-opacity="1"/></g></clipPath></defs><g style="mix-blend-mode:passthrough"><g style="mix-blend-mode:passthrough"><rect x="0" y="0" width="80" height="80" rx="14" fill="#3296FA" fill-opacity="1"/></g><g style="mix-blend-mode:passthrough" clipPath="url(#master_svg0_22_25461)"><g style="mix-blend-mode:passthrough"><path d="M58.91043596801758,34.32780953674316C58.833635968017575,34.69640953674316,58.63383596801758,35.19320953674317,58.35733596801758,35.85820953674316L58.31883596801758,35.89830953674316C56.65933596801758,39.568109536743165,52.379835968017574,46.755409536743166,52.379835968017574,46.755409536743166L52.34143596801758,46.71530953674316L51.07373596801757,48.982909536743165L57.12803596801758,48.982909536743165L45.57263596801758,65.00000953674316L48.18483596801758,54.10290953674316L43.43663596801758,54.10290953674316L45.09623596801758,46.87550953674317C43.75173596801758,47.20410953674316,42.16893596801758,47.66080953674316,40.309635968017574,48.31780953674316C40.309635968017574,48.31780953674316,37.77423596801758,49.84820953674316,33.02603596801758,45.345109536743166C33.02603596801758,45.345109536743166,29.822205968017578,42.372509536743166,31.681515968017578,41.67540953674316C32.47283596801758,41.34690953674317,35.52303596801758,40.970309536743166,37.935535968017575,40.64180953674317C41.177835968017575,40.185009536743166,43.19853596801758,39.93660953674316,43.19853596801758,39.93660953674316C43.19853596801758,39.93660953674316,33.18743596801758,40.104909536743165,30.81332596801758,39.68830953674316C28.439245968017577,39.31970953674316,25.42746596801758,35.14510953674316,24.797445968017577,31.515409536743164C24.797445968017577,31.515409536743164,23.80632596801758,29.536309536743165,26.93335596801758,30.481809536743164C30.02196596801758,31.427309536743167,43.00643596801758,34.151609536743166,43.00643596801758,34.151609536743166C43.00643596801758,34.151609536743166,26.14199596801758,28.799209536743163,25.035625968017577,27.477109536743164C23.92925596801758,26.155009536743165,21.74725196801758,20.297829536743166,22.023843968017577,16.700176536743164C22.023843968017577,16.700176536743164,22.139090968017577,15.794754536743165,23.014965968017577,16.043144636743165C23.014965968017577,16.043144636743165,35.446235968017575,21.988479536743164,43.95143596801758,25.209539536743165C52.502735968017575,28.510709536743164,59.90163596801758,30.161309536743165,58.91043596801758,34.32780953674316Z" fill="#FFFFFF" fill-opacity="1"/></g></g></g></svg>