<svg xmlns="http://www.w3.org/2000/svg" xmlns:xlink="http://www.w3.org/1999/xlink" fill="none" version="1.1" width="80" height="80" viewBox="0 0 80 80"><defs><mask id="master_svg0_110_3135"><g style="mix-blend-mode:passthrough"><path d="M13.03,31.060000000000002Q12.85,31.6,13.75,32.5L24.25,43L38.25,44L64.25,17Q64.25,16,63.25,16L13.75,30.5Q13.15,30.7,13.03,31.060000000000002Z" fill="#FFFFFF" fill-opacity="1"/></g></mask><mask id="master_svg1_110_3168"><g style="mix-blend-mode:passthrough"><path d="M38,43.5L39,58L50,69Q51,69.5,51.5,68.5Q52,67.5,66.5,18Q66.5,17.0000203848,65.5,17L38,43.5Z" fill="#FFFFFF" fill-opacity="1"/></g></mask></defs><g style="mix-blend-mode:passthrough"><g style="mix-blend-mode:passthrough"><rect x="0" y="0" width="80" height="80" rx="13" fill="#FFFFFF" fill-opacity="1"/></g><g style="mix-blend-mode:passthrough"><path d="M13.03,30.560000000000002Q12.85,31.1,13.75,32L24.25,42.5L38.25,43.5L64.25,16.5Q64.25,15.5,63.25,15.5L13.75,30Q13.15,30.2,13.03,30.560000000000002Z" fill="#45EBD5" fill-opacity="1"/></g><g style="mix-blend-mode:passthrough"><path d="M38,43.5L39,58L50,69Q51,69.5,51.5,68.5Q52,67.5,66.5,18Q66.5,17.0000203848,65.5,17L38,43.5Z" fill="#3389FF" fill-opacity="1"/></g><g style="mix-blend-mode:passthrough" mask="url(#master_svg0_110_3135)"><g style="mix-blend-mode:passthrough"><path d="M24.5,42.5L42,46.5L65.5,16L63.5,16.5L24.5,42.5Z" fill="#01D0B6" fill-opacity="1"/></g></g><g style="mix-blend-mode:passthrough" mask="url(#master_svg1_110_3168)"><g style="mix-blend-mode:passthrough"><path d="M38,44L39,58L65.5,17L38,44Z" fill="#015DE2" fill-opacity="1"/></g></g><g style="mix-blend-mode:passthrough" transform="matrix(0.6949939727783203,0.7190155386924744,-0.7190155386924744,0.6949939727783203,30.915630877017975,-42.87993514537811)"><rect x="66" y="15" width="2.418165445327759" height="20.001028060913086" rx="0" fill="#FFFFFF" fill-opacity="1"/></g><g style="mix-blend-mode:passthrough"><ellipse cx="51" cy="31" rx="3" ry="3" fill="#FFFFFF" fill-opacity="1"/></g></g></svg>