<svg xmlns="http://www.w3.org/2000/svg" xmlns:xlink="http://www.w3.org/1999/xlink" fill="none" version="1.1" width="80" height="80" viewBox="0 0 80 80"><defs><mask id="master_svg0_110_1945"><g style="mix-blend-mode:passthrough"><rect x="0" y="0" width="80" height="80" rx="14" fill="#FFFFFF" fill-opacity="1"/></g></mask><linearGradient x1="0.5" y1="0" x2="0.5" y2="1" id="master_svg1_110_2027"><stop offset="0%" stop-color="#038CFE" stop-opacity="1"/><stop offset="100%" stop-color="#0056FF" stop-opacity="1"/></linearGradient><linearGradient x1="0.5" y1="0" x2="0.5" y2="1" id="master_svg2_110_2069"><stop offset="0%" stop-color="#0499FD" stop-opacity="1"/><stop offset="99.28571581840515%" stop-color="#025BFF" stop-opacity="1"/></linearGradient><linearGradient x1="0.5" y1="0" x2="0.5" y2="1" id="master_svg3_110_2399"><stop offset="0%" stop-color="#AFC5F6" stop-opacity="1"/><stop offset="99.28571581840515%" stop-color="#7B9DFE" stop-opacity="1"/></linearGradient></defs><g style="mix-blend-mode:passthrough"><g style="mix-blend-mode:passthrough" mask="url(#master_svg0_110_1945)"><g style="mix-blend-mode:passthrough" transform="matrix(0.7071067690849304,0.7071067690849304,-0.7071067690849304,0.7071067690849304,-21.85482703561138,-63.043928827290074)"><rect x="65.17333984375" y="-57.903076171875" width="52.9106559753418" height="148.60015869140625" rx="0" fill="url(#master_svg1_110_2027)" fill-opacity="1"/></g><g style="mix-blend-mode:passthrough" transform="matrix(0.7071067690849304,0.7071067690849304,-0.7071067690849304,0.7071067690849304,15.55859337927268,-78.54079698223813)"><rect x="102.58642578125" y="-20.489517211914062" width="52.9106559753418" height="148.60015869140625" rx="0" fill="url(#master_svg2_110_2069)" fill-opacity="1"/></g></g><g style="mix-blend-mode:passthrough"><path d="M11.1363,39.5Q8.63642,42.5,11.6363,46L18.6363,53L29.1363,42.5L40.1363,53.5L51.1363,42.5L61.6363,53L66.8943,47.742000000000004C68.6885,45.9478,70.3776,43.561499999999995,69.6957,41.1174Q69.2863,39.65,68.1363,38.5L50.6363,21L40.1363,31.5L29.6363,21Q13.63619,36.5,11.1363,39.5Z" fill="#FFFFFF" fill-opacity="1"/></g><g style="mix-blend-mode:passthrough"><path d="M30,21L30,42L40.5,31.5L30,21Z" fill="url(#master_svg3_110_2399)" fill-opacity="1"/></g></g></svg>