<svg xmlns="http://www.w3.org/2000/svg" xmlns:xlink="http://www.w3.org/1999/xlink" fill="none" version="1.1" width="18" height="18" viewBox="0 0 18 18"><defs><clipPath id="master_svg0_22_11890"><rect x="0" y="0" width="18" height="18" rx="0"/></clipPath></defs><g clip-path="url(#master_svg0_22_11890)"><g style="mix-blend-mode:passthrough"><g><path d="M11.05,13L11.05,8.833333C11.05,8.375,11.4325,8,11.9,8C12.3675,8,12.75,8.375,12.75,8.833333L12.75,13L15.3,13C16.235,13,17,13.75,17,14.66667L17,16.33333C17,17.25,16.235,18,15.3,18L1.7,18C0.765,18,0,17.25,0,16.33333L0,14.66667C0,13.75,0.765,13,1.7,13L11.05,13ZM2.55,14.66667C2.0825,14.66667,1.7,15.04167,1.7,15.5C1.7,15.95833,2.0825,16.33333,2.55,16.33333L6.8,16.33333C7.2675,16.33333,7.65,15.95833,7.65,15.5C7.65,15.04167,7.2675,14.66667,6.8,14.66667L2.55,14.66667Z" fill="#FFFFFF" fill-opacity="1"/></g><g style="opacity:0.6000000238418579;"><path d="M15.4,7L14.27333,8C13.58,7.08696,12.58333,6.56522,11.5,6.56522C10.41667,6.56522,9.42,7.08696,8.72667,7.95652L7.6,6.95652C8.553329999999999,5.6956500000000005,9.983329999999999,5,11.5,5C13.01667,5.043480000000001,14.44667,5.78261,15.4,7ZM18,5.043480000000001L16.83,6C15.53,4.43478,13.58,3.5217400000000003,11.5,3.5217400000000003C9.42,3.5217400000000003,7.470000000000001,4.43478,6.17,5.956519999999999L5,5C6.60333,3.13043,8.94333,2,11.5,2C14.05667,2.0434782,16.3967,3.1739100000000002,18,5.043480000000001Z" fill="#FFFFFF" fill-opacity="1"/></g></g></g></svg>