<svg xmlns="http://www.w3.org/2000/svg" xmlns:xlink="http://www.w3.org/1999/xlink" fill="none" version="1.1" width="113" height="78" viewBox="0 0 113 78"><defs><clipPath id="master_svg0_22_11674"><g style="mix-blend-mode:passthrough"><path d="M2.51111102104187,0L8.78889102104187,0L8.78889102104187,16.3548L2.51111102104187,16.3548L2.51111102104187,0Z" fill-rule="evenodd" fill="#FFFFFF" fill-opacity="1"/></g></clipPath><clipPath id="master_svg1_22_11695"><g style="mix-blend-mode:passthrough"><path d="M0,125.80644989013672L13.8111,125.80644989013672L13.8111,140.90324989013672L0,140.90324989013672L0,125.80644989013672Z" fill-rule="evenodd" fill="#FFFFFF" fill-opacity="1"/></g></clipPath></defs><g style="mix-blend-mode:passthrough"><g style="mix-blend-mode:passthrough"><g style="mix-blend-mode:passthrough"></g><g style="mix-blend-mode:passthrough" clipPath="url(#master_svg0_22_11674)"><g style="mix-blend-mode:passthrough"><path d="M5.6502710210418705,16.35493738612607L5.6502710210418705,16.35493738612607C3.9234110210418702,16.35493738612607,2.51111102104187,14.910537386126071,2.51111102104187,13.145737386126072L2.51111102104187,3.2088773861260713C2.51111102104187,1.444067386126071,3.9234110210418702,-0.0002626138739287853,5.6502710210418705,-0.0002626138739287853C7.37659102104187,-0.0002626138739287853,8.78889102104187,1.444067386126071,8.78889102104187,3.2088773861260713L8.78889102104187,13.145737386126072C8.78889102104187,14.910537386126071,7.37659102104187,16.35493738612607,5.6502710210418705,16.35493738612607L5.6502710210418705,16.35493738612607Z" fill-rule="evenodd" fill="#FFFFFF" fill-opacity="1"/></g></g></g><g style="mix-blend-mode:passthrough"><path d="M32.01705726257324,49.13740803222656L32.01705726257324,49.13740803222656C30.29073726257324,49.13740803222656,28.877897262573242,47.69310803222656,28.877897262573242,45.928408032226564L28.877897262573242,35.991138032226566C28.877897262573242,34.226358032226564,30.29073726257324,32.78260803222656,32.01705726257324,32.78260803222656C33.74337726257324,32.78260803222656,35.15567726257324,34.226358032226564,35.15567726257324,35.991138032226566L35.15567726257324,45.928408032226564C35.15567726257324,47.69310803222656,33.74337726257324,49.13740803222656,32.01705726257324,49.13740803222656L32.01705726257324,49.13740803222656Z" fill-rule="evenodd" fill="#FFFFFF" fill-opacity="1"/></g><g style="mix-blend-mode:passthrough"><path d="M32.01693709960937,27.67738129119873L32.01693709960937,27.67738129119873C30.290617099609374,27.67738129119873,28.877777099609375,26.23308129119873,28.877777099609375,24.46838129119873L28.877777099609375,14.53166129119873C28.877777099609375,12.76688129119873,30.290617099609374,11.32258129119873,32.01693709960937,11.32258129119873C33.74325709960937,11.32258129119873,35.155557099609375,12.76688129119873,35.155557099609375,14.53166129119873L35.155557099609375,24.46838129119873C35.155557099609375,26.23308129119873,33.74325709960937,27.67738129119873,32.01693709960937,27.67738129119873L32.01693709960937,27.67738129119873Z" fill-rule="evenodd" fill="#FFFFFF" fill-opacity="1"/></g><g style="mix-blend-mode:passthrough"><path d="M43.316396336669925,35.22576786499023L43.316396336669925,35.22576786499023C41.590076336669924,35.22576786499023,40.17777633666992,33.781967864990236,40.17777633666992,32.017167864990235L40.17777633666992,22.079597864990234C40.17777633666992,20.314767864990234,41.590076336669924,18.870967864990234,43.316396336669925,18.870967864990234C45.04271633666992,18.870967864990234,46.45555633666992,20.314767864990234,46.45555633666992,22.079597864990234L46.45555633666992,32.017167864990235C46.45555633666992,33.781967864990236,45.04271633666992,35.22576786499023,43.316396336669925,35.22576786499023L43.316396336669925,35.22576786499023Z" fill-rule="evenodd" fill="#FFFFFF" fill-opacity="1"/></g><g style="mix-blend-mode:passthrough"><path d="M18.205825649414063,48.51753403625489L18.205825649414063,48.51753403625489C16.478965649414064,48.51753403625489,15.066665649414062,47.09653403625488,15.066665649414062,45.360134036254884L15.066665649414062,30.287814036254883C15.066665649414062,28.551474036254884,16.478965649414064,27.130434036254883,18.205825649414063,27.130434036254883C19.93214564941406,27.130434036254883,21.344445649414062,28.551474036254884,21.344445649414062,30.287814036254883L21.344445649414062,45.360134036254884C21.344445649414062,47.09653403625488,19.93214564941406,48.51753403625489,18.205825649414063,48.51753403625489L18.205825649414063,48.51753403625489Z" fill-rule="evenodd" fill="#FFFFFF" fill-opacity="1"/></g><g style="mix-blend-mode:passthrough"><path d="M4.3947155105209355,49.283326004028325L4.3947155105209355,49.283326004028325C2.667855510520935,49.283326004028325,1.255555510520935,47.78792600402832,1.255555510520935,45.96082600402832L1.255555510520935,23.66973600402832C1.255555510520935,21.84260600402832,2.667855510520935,20.34782600402832,4.3947155105209355,20.34782600402832C6.121035510520935,20.34782600402832,7.533335510520935,21.84260600402832,7.533335510520935,23.66973600402832L7.533335510520935,45.96082600402832C7.533335510520935,47.78792600402832,6.121035510520935,49.283326004028325,4.3947155105209355,49.283326004028325L4.3947155105209355,49.283326004028325Z" fill-rule="evenodd" fill="#FFFFFF" fill-opacity="1"/></g><g style="mix-blend-mode:passthrough"><path d="M57.12777397216797,49.283326004028325L57.12777397216797,49.283326004028325C55.40160397216797,49.283326004028325,53.98888397216797,47.78792600402832,53.98888397216797,45.96082600402832L53.98888397216797,23.66973600402832C53.98888397216797,21.84260600402832,55.40160397216797,20.34782600402832,57.12777397216797,20.34782600402832C58.85448397216797,20.34782600402832,60.26666397216797,21.84260600402832,60.26666397216797,23.66973600402832L60.26666397216797,45.96082600402832C60.26666397216797,47.78792600402832,58.85448397216797,49.283326004028325,57.12777397216797,49.283326004028325L57.12777397216797,49.283326004028325Z" fill-rule="evenodd" fill="#FFFFFF" fill-opacity="1"/></g><g style="mix-blend-mode:passthrough"><path d="M18.205825649414063,22.645144607543948L18.205825649414063,22.645144607543948C16.478965649414064,22.645144607543948,15.066665649414062,21.085334607543945,15.066665649414062,19.178674607543947L15.066665649414062,16.047124607543946C15.066665649414062,14.140474607543945,16.478965649414064,12.580644607543945,18.205825649414063,12.580644607543945C19.93214564941406,12.580644607543945,21.344445649414062,14.140474607543945,21.344445649414062,16.047124607543946L21.344445649414062,19.178674607543947C21.344445649414062,21.085334607543945,19.93214564941406,22.645144607543948,18.205825649414063,22.645144607543948L18.205825649414063,22.645144607543948Z" fill-rule="evenodd" fill="#FFFFFF" fill-opacity="1"/></g><g style="mix-blend-mode:passthrough"><path d="M57.37888404907227,16.847108509063723L57.37888404907227,16.847108509063723C55.652714049072266,16.847108509063723,54.239994049072266,15.28679850906372,54.239994049072266,13.38024850906372L54.239994049072266,10.24947850906372C54.239994049072266,8.342938509063721,55.652714049072266,6.782608509063721,57.37888404907227,6.782608509063721C59.105594049072266,6.782608509063721,60.517774049072266,8.342938509063721,60.517774049072266,10.24947850906372L60.517774049072266,13.38024850906372C60.517774049072266,15.28679850906372,59.105594049072266,16.847108509063723,57.37888404907227,16.847108509063723L57.37888404907227,16.847108509063723Z" fill-rule="evenodd" fill="#FFFFFF" fill-opacity="1"/></g><g style="mix-blend-mode:passthrough"><path d="M43.31651459228516,49.62971606445313L43.31651459228516,49.62971606445313C41.59019459228516,49.62971606445313,40.177894592285156,48.069406064453126,40.177894592285156,46.16285606445312L40.177894592285156,43.032086064453125C40.177894592285156,41.125546064453125,41.59019459228516,39.565216064453125,43.31651459228516,39.565216064453125C45.04283459228515,39.565216064453125,46.455674592285156,41.125546064453125,46.455674592285156,43.032086064453125L46.455674592285156,46.16285606445312C46.455674592285156,48.069406064453126,45.04283459228515,49.62971606445313,43.31651459228516,49.62971606445313L43.31651459228516,49.62971606445313Z" fill-rule="evenodd" fill="#FFFFFF" fill-opacity="1"/></g><g style="mix-blend-mode:passthrough"><path d="M69.68333122314453,48.51753403625489L69.68333122314453,48.51753403625489C67.95686122314453,48.51753403625489,66.54444122314453,47.09653403625488,66.54444122314453,45.360134036254884L66.54444122314453,30.287814036254883C66.54444122314453,28.551474036254884,67.95686122314453,27.130434036254883,69.68333122314453,27.130434036254883C71.40980122314453,27.130434036254883,72.82222122314454,28.551474036254884,72.82222122314454,30.287814036254883L72.82222122314454,45.360134036254884C72.82222122314454,47.09653403625488,71.40980122314453,48.51753403625489,69.68333122314453,48.51753403625489L69.68333122314453,48.51753403625489Z" fill-rule="evenodd" fill="#FFFFFF" fill-opacity="1"/></g><g style="mix-blend-mode:passthrough"><path d="M108.60581954589844,49.283326004028325L108.60581954589844,49.283326004028325C106.87949954589844,49.283326004028325,105.46665954589844,47.78792600402832,105.46665954589844,45.96082600402832L105.46665954589844,23.66973600402832C105.46665954589844,21.84260600402832,106.87949954589844,20.34782600402832,108.60581954589844,20.34782600402832C110.33213954589844,20.34782600402832,111.74443954589844,21.84260600402832,111.74443954589844,23.66973600402832L111.74443954589844,45.96082600402832C111.74443954589844,47.78792600402832,110.33213954589844,49.283326004028325,108.60581954589844,49.283326004028325L108.60581954589844,49.283326004028325Z" fill-rule="evenodd" fill="#FFFFFF" fill-opacity="1"/></g><g style="mix-blend-mode:passthrough"><path d="M83.49444267333985,49.283326004028325L83.49444267333985,49.283326004028325C81.76797267333984,49.283326004028325,80.35555267333984,47.78792600402832,80.35555267333984,45.96082600402832L80.35555267333984,23.66973600402832C80.35555267333984,21.84260600402832,81.76797267333984,20.34782600402832,83.49444267333985,20.34782600402832C85.22091267333984,20.34782600402832,86.63333267333985,21.84260600402832,86.63333267333985,23.66973600402832L86.63333267333985,45.96082600402832C86.63333267333985,47.78792600402832,85.22091267333984,49.283326004028325,83.49444267333985,49.283326004028325L83.49444267333985,49.283326004028325Z" fill-rule="evenodd" fill="#FFFFFF" fill-opacity="1"/></g><g style="mix-blend-mode:passthrough"><path d="M69.68333122314453,22.645144607543948L69.68333122314453,22.645144607543948C67.95686122314453,22.645144607543948,66.54444122314453,21.085334607543945,66.54444122314453,19.178674607543947L66.54444122314453,16.047124607543946C66.54444122314453,14.140474607543945,67.95686122314453,12.580644607543945,69.68333122314453,12.580644607543945C71.40980122314453,12.580644607543945,72.82222122314454,14.140474607543945,72.82222122314454,16.047124607543946L72.82222122314454,19.178674607543947C72.82222122314454,21.085334607543945,71.40980122314453,22.645144607543948,69.68333122314453,22.645144607543948L69.68333122314453,22.645144607543948Z" fill-rule="evenodd" fill="#FFFFFF" fill-opacity="1"/></g><g style="mix-blend-mode:passthrough"><path d="M108.60581954589844,16.354822303771975L108.60581954589844,16.354822303771975C106.87949954589844,16.354822303771975,105.46665954589844,14.794512303771972,105.46665954589844,12.887962303771973L105.46665954589844,9.757192303771973C105.46665954589844,7.850652303771973,106.87949954589844,6.290322303771973,108.60581954589844,6.290322303771973C110.33213954589844,6.290322303771973,111.74443954589844,7.850652303771973,111.74443954589844,9.757192303771973L111.74443954589844,12.887962303771973C111.74443954589844,14.794512303771972,110.33213954589844,16.354822303771975,108.60581954589844,16.354822303771975L108.60581954589844,16.354822303771975Z" fill-rule="evenodd" fill="#FFFFFF" fill-opacity="1"/></g><g style="mix-blend-mode:passthrough"><path d="M96.05026992431641,35.22578921508789L96.05026992431641,35.22578921508789C94.32394992431641,35.22578921508789,92.9111099243164,33.66597921508789,92.9111099243164,31.759319215087892L92.9111099243164,28.62776921508789C92.9111099243164,26.721119215087892,94.32394992431641,25.16128921508789,96.05026992431641,25.16128921508789C97.77658992431641,25.16128921508789,99.18888992431641,26.721119215087892,99.18888992431641,28.62776921508789L99.18888992431641,31.759319215087892C99.18888992431641,33.66597921508789,97.77658992431641,35.22578921508789,96.05026992431641,35.22578921508789L96.05026992431641,35.22578921508789Z" fill-rule="evenodd" fill="#FFFFFF" fill-opacity="1"/></g><g style="mix-blend-mode:passthrough"><path d="M95.79914840332032,22.499282028198245L95.79914840332032,22.499282028198245C94.07282840332032,22.499282028198245,92.65998840332031,20.939472028198242,92.65998840332031,19.032812028198244L92.65998840332031,15.901262028198243C92.65998840332031,13.994612028198242,94.07282840332032,12.434782028198242,95.79914840332032,12.434782028198242C97.52546840332032,12.434782028198242,98.93776840332032,13.994612028198242,98.93776840332032,15.901262028198243L98.93776840332032,19.032812028198244C98.93776840332032,20.939472028198242,97.52546840332032,22.499282028198245,95.79914840332032,22.499282028198245L95.79914840332032,22.499282028198245Z" fill-rule="evenodd" fill="#FFFFFF" fill-opacity="1"/></g><g style="mix-blend-mode:passthrough"><path d="M96.05026992431641,49.62971606445313L96.05026992431641,49.62971606445313C94.32394992431641,49.62971606445313,92.9111099243164,48.069406064453126,92.9111099243164,46.16285606445312L92.9111099243164,43.032086064453125C92.9111099243164,41.125546064453125,94.32394992431641,39.565216064453125,96.05026992431641,39.565216064453125C97.77658992431641,39.565216064453125,99.18888992431641,41.125546064453125,99.18888992431641,43.032086064453125L99.18888992431641,46.16285606445312C99.18888992431641,48.069406064453126,97.77658992431641,49.62971606445313,96.05026992431641,49.62971606445313L96.05026992431641,49.62971606445313Z" fill-rule="evenodd" fill="#FFFFFF" fill-opacity="1"/></g><g style="mix-blend-mode:passthrough"><g style="mix-blend-mode:passthrough"></g><g style="mix-blend-mode:passthrough" clipPath="url(#master_svg1_22_11695)"><g style="mix-blend-mode:passthrough"><path d="M-0.000041669980419101194,133.28444989013673C-0.000041669980419101194,131.09523989013672,0.9223413300195809,129.2701698901367,2.767108330019581,127.80978989013671C4.461718330019581,126.47513489013672,6.403278330019581,125.80644989013672,8.59230833001958,125.80644989013672C9.522008330019581,125.80644989013672,10.41035833001958,125.93866989013672,11.25795833001958,126.20310889013672C12.105558330019582,126.46754789013671,12.95675833001958,126.87070989013672,13.81115833001958,127.41421989013672L13.81115833001958,130.9315898901367C12.79145833001958,130.07757989013672,11.97415833001958,129.47228989013672,11.35895833001958,129.11518989013672C10.369558330019581,128.54079989013673,9.409528330019581,128.2530598901367,8.479818330019581,128.2530598901367C7.085518330019581,128.2530598901367,5.844508330019581,128.7461698901367,4.757318330019581,129.73239989013672C3.670138330019581,130.71862989013673,3.127058330019581,131.92539989013673,3.127058330019581,133.35434989013672C3.127058330019581,134.87703989013673,3.688968330019581,136.12014989013673,4.8138283300195805,137.0825498901367C5.878518330019581,137.9988498901367,7.160328330019581,138.45614989013671,8.659798330019582,138.45614989013671C9.67948833001958,138.45614989013671,10.80435833001958,138.0459498901367,12.03435833001958,137.2223498901367C12.333658330019581,137.0201498901367,12.92635833001958,136.57804989013673,13.81115833001958,135.89364989013671L13.81115833001958,139.31944989013672C13.015858330019581,139.80004989013673,12.16935833001958,140.18424989013673,11.26995833001958,140.47194989013673C10.369558330019581,140.75864989013672,9.47753833001958,140.90334989013672,8.59230833001958,140.90334989013672C6.328458330019581,140.90334989013672,4.371208330019581,140.23574989013673,2.722118330019581,138.89994989013672C0.9076923300195809,137.4396498901367,-0.000041669980419101194,135.56848989013673,-0.000041669980419101194,133.28444989013673L-0.000041669980419101194,133.28444989013673Z" fill-rule="evenodd" fill="#FFFFFF" fill-opacity="1"/></g></g></g><g style="mix-blend-mode:passthrough"><path d="M16.322219848632812,62.90322494506836L19.541029848632814,62.90322494506836L19.541029848632814,75.47562494506836L23.855549848632812,75.47562494506836L23.855549848632812,78.00002494506836L16.322219848632812,78.00002494506836L16.322219848632812,62.90322494506836Z" fill-rule="evenodd" fill="#FFFFFF" fill-opacity="1"/></g><g style="mix-blend-mode:passthrough"><path d="M27.915638474121096,74.12115686035156L33.58219847412109,74.12115686035156L35.47069847412109,77.99995686035156L38.92219847412109,77.99995686035156L30.877448474121096,61.64515686035156L22.599998474121094,77.99995686035156L26.027148474121095,77.99995686035156L27.915638474121096,74.12115686035156ZM32.41607847412109,71.68045686035157L29.151638474121093,71.68045686035157L30.807448474121095,68.30544686035157L32.41607847412109,71.68045686035157Z" fill-rule="evenodd" fill="#FFFFFF" fill-opacity="1"/></g><g style="mix-blend-mode:passthrough"><path d="M38.92222213745117,73.61982494506836L42.39564213745117,72.89747494506835C42.61827213745117,73.70492494506836,42.91031213745117,74.31892494506836,43.27058213745117,74.73832494506836C43.75054213745117,75.28232494506835,44.39388213745117,75.55332494506835,45.20000213745117,75.55332494506835C45.95465213745117,75.55332494506835,46.59799213745117,75.34792494506836,47.12941213745117,74.93612494506836C47.661442137451175,74.52532494506836,47.92715213745117,73.98452494506836,47.92715213745117,73.31742494506835C47.92715213745117,72.58750494506836,47.24072213745117,71.92639494506835,45.86907213745117,71.33680494506837C44.58239213745117,70.80899494506836,43.29632213745117,70.28064494506836,42.00964213745117,69.75283494506836C40.603282137451174,68.99146494506836,39.900095137451174,68.04476494506837,39.900095137451174,66.91111494506836C39.900095137451174,65.60513494506836,40.53445213745117,64.58853494506836,41.803182137451174,63.85859394506836C42.901342137451174,63.22186194506836,44.21375213745117,62.90322494506836,45.74040213745117,62.90322494506836C46.872672137451175,62.90322494506836,47.87568213745117,63.14436994506836,48.750622137451174,63.62503494506836C49.62552213745117,64.10678494506836,50.38862213745117,64.79066494506836,51.04032213745117,65.67504494506836L48.23595213745117,67.11920494506836C47.755392137451175,66.49872494506836,47.404102137451176,66.09501494506836,47.18148213745117,65.90805494506836C46.73503213745117,65.53577494506835,46.220362137451175,65.34990494506836,45.63747213745117,65.34990494506836C45.05397213745117,65.34990494506836,44.547682137451176,65.47778494506836,44.11979213745117,65.73302494506837C43.69010213745117,65.98988494506835,43.47585213745117,66.36704494506836,43.47585213745117,66.86396494506836C43.47585213745117,67.53104494506836,44.16168213745117,68.14501494506835,45.53453213745117,68.70425494506836C47.98700213745117,69.71381494506836,49.27362213745117,70.25029494506836,49.39392213745117,70.31153494506836C50.78352213745117,71.10433494506836,51.47782213745117,72.09817494506837,51.47782213745117,73.29412494506836C51.47782213745117,74.73832494506836,50.81712213745117,75.90282494506836,49.49692213745117,76.78882494506836C48.296402137451174,77.59572494506835,46.872672137451175,78.00002494506836,45.225732137451175,78.00002494506836C41.81215213745117,78.00002494506836,39.71098413745117,76.54062494506836,38.92222213745117,73.61982494506836L38.92222213745117,73.61982494506836Z" fill-rule="evenodd" fill="#FFFFFF" fill-opacity="1"/></g><g style="mix-blend-mode:passthrough"><path d="M51.47777557373047,73.61982494506836L54.95136557373047,72.89747494506835C55.17400557373047,73.70492494506836,55.46605557373047,74.31892494506836,55.82634557373047,74.73832494506836C56.30632557373047,75.28232494506835,56.94909557373047,75.55332494506835,57.75585557373047,75.55332494506835C58.510535573730465,75.55332494506835,59.15390557373047,75.34792494506836,59.68535557373047,74.93612494506836C60.21740557373047,74.52532494506836,60.48373557373047,73.98452494506836,60.48373557373047,73.31742494506835C60.48373557373047,72.58750494506836,59.79667557373047,71.92639494506835,58.424355573730466,71.33680494506837C57.13821557373047,70.80899494506836,55.85208557373047,70.28064494506836,54.56534557373047,69.75283494506836C53.15891557373047,68.99146494506836,52.455695573730466,68.04476494506837,52.455695573730466,66.91111494506836C52.455695573730466,65.60513494506836,53.09008557373047,64.58853494506836,54.35886557373047,63.85859394506836C55.45708557373047,63.22186194506836,56.76955557373047,62.90322494506836,58.29628557373047,62.90322494506836C59.42801557373047,62.90322494506836,60.43166557373047,63.14436994506836,61.30664557373047,63.62503494506836C62.18167557373047,64.10678494506836,62.94407557373047,64.79066494506836,63.59647557373047,65.67504494506836L60.79195557373047,67.11920494506836C60.31136557373047,66.49872494506836,59.96006557373047,66.09501494506836,59.73742557373047,65.90805494506836C59.29095557373047,65.53577494506835,58.77626557373047,65.34990494506836,58.19334557373047,65.34990494506836C57.60982557373047,65.34990494506836,57.103505573730466,65.47778494506836,56.67559557373047,65.73302494506837C56.24588557373047,65.98988494506835,56.031625573730466,66.36704494506836,56.031625573730466,66.86396494506836C56.031625573730466,67.53104494506836,56.71748557373047,68.14501494506835,58.09040557373047,68.70425494506836C60.54298557373047,69.71381494506836,61.82967557373047,70.25029494506836,61.94937557373047,70.31153494506836C63.33907557373047,71.10433494506836,64.03337557373047,72.09817494506837,64.03337557373047,73.29412494506836C64.03337557373047,74.73832494506836,63.37317557373047,75.90282494506836,62.05297557373047,76.78882494506836C60.85179557373047,77.59572494506835,59.42801557373047,78.00002494506836,57.78158557373047,78.00002494506836C54.36784557373047,78.00002494506836,52.266574573730466,76.54062494506836,51.47777557373047,73.61982494506836L51.47777557373047,73.61982494506836Z" fill-rule="evenodd" fill="#FFFFFF" fill-opacity="1"/></g><g style="mix-blend-mode:passthrough"><path d="M71.3568351953125,78.00002494506836L67.98499519531251,78.00002494506836L67.98499519531251,65.42820494506836L64.0333251953125,65.42820494506836L64.0333251953125,62.90322494506836L75.3333251953125,62.90322494506836L75.3333251953125,65.42820494506836L71.3568351953125,65.42820494506836L71.3568351953125,78.00002494506836Z" fill-rule="evenodd" fill="#FFFFFF" fill-opacity="1"/></g><g style="mix-blend-mode:passthrough"><path d="M79.39377404785157,74.12115686035156L85.05957404785156,74.12115686035156L86.94797404785156,77.99995686035156L90.39997404785156,77.99995686035156L82.35548404785156,61.64515686035156L74.07777404785156,77.99995686035156L77.50481404785157,77.99995686035156L79.39377404785157,74.12115686035156ZM83.89411404785156,71.68045686035157L80.62977404785155,71.68045686035157L82.28553404785157,68.30544686035157L83.89411404785156,71.68045686035157Z" fill-rule="evenodd" fill="#FFFFFF" fill-opacity="1"/></g><g style="mix-blend-mode:passthrough"><path d="M90.39999389648438,62.90322494506836L93.61880389648438,62.90322494506836L93.61880389648438,75.47562494506836L97.93332389648438,75.47562494506836L97.93332389648438,78.00002494506836L90.39999389648438,78.00002494506836L90.39999389648438,62.90322494506836Z" fill-rule="evenodd" fill="#FFFFFF" fill-opacity="1"/></g><g style="mix-blend-mode:passthrough"><path d="M103.50027511962891,78.00002494506836L100.4444351196289,78.00002494506836L100.4444351196289,62.90546108506836L103.50027511962891,62.90546108506836L103.4915151196289,67.91777494506836L108.8125751196289,62.90322494506836L112.84343511962891,62.90546108506836L105.2720651196289,69.99571494506836L113.0000351196289,78.00002494506836L108.9696651196289,78.00002494506836L103.50027511962891,72.23186494506837L103.50027511962891,78.00002494506836Z" fill-rule="evenodd" fill="#FFFFFF" fill-opacity="1"/></g></g></svg>