<svg xmlns="http://www.w3.org/2000/svg" xmlns:xlink="http://www.w3.org/1999/xlink" fill="none" version="1.1" width="431" height="431" viewBox="0 0 431 431"><defs><filter id="master_svg0_22_11719" filterUnits="objectBoundingBox" color-interpolation-filters="sRGB" x="-246" y="-242" width="552" height="552"><feFlood flood-opacity="0" result="BackgroundImageFix"/><feColorMatrix in="SourceAlpha" type="matrix" values="0 0 0 0 0 0 0 0 0 0 0 0 0 0 0 0 0 0 127 0"/><feMorphology radius="4" operator="dilate" in="SourceAlpha" result="effect1_dropShadow"/><feOffset dy="4" dx="0"/><feGaussianBlur stdDeviation="60.5"/><feColorMatrix type="matrix" values="0 0 0 0 0.2738012373447418 0 0 0 0 0.3955402374267578 0 0 0 0 0.5892000198364258 0 0 0 1 0"/><feBlend mode="normal" in2="BackgroundImageFix" result="effect1_dropShadow"/><feBlend mode="normal" in="SourceGraphic" in2="effect1_dropShadow" result="shape"/></filter></defs><g style="mix-blend-mode:passthrough"><g style="opacity:0.1599999964237213;mix-blend-mode:passthrough" filter="url(#master_svg0_22_11719)"><rect x="185.5" y="181.5" width="60" height="60" rx="16" fill="#FFFFFF" fill-opacity="1"/></g><g style="mix-blend-mode:passthrough"><g style="mix-blend-mode:passthrough"><path d="M218.6957,216.0558L205.28971,216.0558L205.28971,203.57534C205.28971,203.43319,205.40157,203.31947,205.54139,203.31947L226.4586,203.31947C226.5984,203.31947,226.7103,203.43319,226.7103,203.57534L226.7103,211.47015C226.7103,211.9733,227.1102,212.3799,227.6051,212.3799C228.1001,212.3799,228.5,211.9733,228.5,211.47015L228.5,203.57534C228.5,202.429638,227.5856,201.5,226.4586,201.5L205.54139,201.5C204.417226,201.5,203.5,202.429638,203.5,203.57534L203.5,219.4247C203.5,220.5675,204.41443,221.5,205.54139,221.5L218.6957,221.5C219.1907,221.5,219.5906,221.0935,219.5906,220.5903L219.5906,220.5874C219.5906,220.0842,219.1907,219.67770000000002,218.6957,219.67770000000002L205.54139,219.67770000000002C205.40157,219.67770000000002,205.28971,219.564,205.28971,219.4218L205.28971,217.8753L218.6957,217.8753C219.1907,217.8753,219.5906,217.4687,219.5906,216.9655C219.5906,216.4623,219.1879,216.0558,218.6957,216.0558Z" fill="#FFFFFF" fill-opacity="1"/></g><g style="mix-blend-mode:passthrough"><path d="M228.5,215.387033C228.5,214.899748,228.10032,214.5000641615,227.61303,214.5000641615L222.381558,214.5000641615C222.154341,214.4973266,221.927123,214.5821909,221.754657,214.754657C221.5821909,214.927123,221.4973266,215.154341,221.5000641615,215.381558L221.5000641615,220.61303C221.5000641615,221.10032,221.899748,221.5,222.387033,221.5C222.87432,221.5,223.274,221.10032,223.274,220.61303L223.274,217.51138L226.99982,221.23719C227.33928,221.57665,227.89774,221.57665,228.23993,221.23719C228.58213,220.89774,228.57939,220.33928,228.23993,219.99708L224.51412,216.274L227.61303,216.274C228.10032,216.274,228.5,215.87432,228.5,215.387033L228.5,215.387033Z" fill="#FFFFFF" fill-opacity="1"/></g></g></g></svg>